<svg width="202" height="53" viewBox="0 0 202 53" fill="none" xmlns="http://www.w3.org/2000/svg">
<rect width="202" height="53" fill="white"/>
<path d="M31.0235 38C28.3595 38 25.2834 37.0185 23.444 36.2586L23 28.9129H23.1269C24.9345 32.8707 28.0424 37.6201 31.182 37.6201C32.8311 37.6201 34.1631 36.3536 34.1631 34.1689C34.1631 32.2691 33.18 30.876 29.2475 28.5646C26.7105 27.0765 23.222 25.3034 23.222 21.029C23.222 16.8496 26.6153 14.5383 30.738 14.5383C32.7994 14.5383 35.3999 15.1398 37.0807 15.6464L37.7467 22.8338H37.6198C35.9073 19.1926 33.1482 14.9182 30.3575 14.9182C28.9304 14.9182 27.6936 16.0264 27.6936 17.9894C27.6936 19.7309 28.6767 20.7757 32.4188 22.9921C36.0341 25.1135 38.9201 26.5066 38.9201 30.876C38.9201 36.2269 34.6071 38 31.0235 38Z" fill="black"/>
<path d="M39.8836 37.5884V37.4617C41.2155 36.5435 41.501 36.1953 41.501 33.8839V19.8892C41.501 16.8179 41.1204 16.628 39.9153 15.4881V15.3615C42.3889 15.1715 44.926 14.7599 47.3996 14V25.0185C48.8584 22.9604 50.7612 21.8206 52.9495 21.8206C54.4717 21.8206 57.7064 22.4855 57.7064 26.7599V33.8839C57.7064 36.1953 58.0236 36.5435 59.3238 37.4617V37.5884H50.2221V37.4617C51.5224 36.5435 51.8395 36.1953 51.8395 33.8839C51.8712 28.1214 51.8712 27.8997 51.8712 27.8364C51.8712 24.8918 51.0467 24.0686 49.8098 24.0686C48.9853 24.0686 48.1925 24.4485 47.3996 25.6517V33.8839C47.3996 36.1953 47.7168 36.5435 49.017 37.4617V37.5884H39.8836Z" fill="black"/>
<path d="M73.5011 37.905C70.7738 37.905 70.1395 35.9736 70.203 34.4538H70.1395C69.3467 35.657 67.4122 37.8734 64.4946 37.8734C62.0209 37.8734 60.3084 36.2902 60.3084 34.1055C60.3084 30.591 64.6531 28.723 70.203 27.3615L70.2347 24.6069C70.2347 23.4987 69.8858 22.2322 68.7124 22.2322C66.8096 22.2322 65.89 25.5567 65.5728 28.153L61.5135 25.9683C62.3698 24.1953 64.7483 21.8206 69.537 21.8206C75.4039 21.8206 75.8796 25.4617 75.8162 27.8997L75.6576 34.6755C75.6576 35.1187 75.7845 35.7203 76.4822 35.7203C77.1482 35.7203 77.6239 35.0871 77.8459 34.6121L78.0044 34.6438C77.497 36.1636 76.1333 37.905 73.5011 37.905ZM67.983 35.1821C68.9027 35.1821 69.6321 34.5488 70.0761 33.9156L70.203 27.7098C67.4756 28.4697 66.3657 29.8945 66.3657 32.4274C66.3657 34.4538 67.0633 35.1821 67.983 35.1821Z" fill="black"/>
<path d="M78.2244 37.5884V37.4617C79.5564 36.5435 79.8418 36.1953 79.8418 33.8839V27.1715C79.8418 24.7968 79.5247 24.2586 78.2561 23.1821V23.0554C80.6981 22.9288 83.2034 22.4855 85.6453 21.7573V24.8602C86.0893 23.562 87.453 21.8206 90.1486 21.8206C90.7512 21.8206 91.1 21.9156 91.5123 22.1055L90.7195 28.0897H90.5926C89.5778 26.5383 87.9287 24.5119 86.8821 24.5119C86.3113 24.5119 85.9308 24.9235 85.7405 25.3034V33.8839C85.7405 36.1953 86.1527 36.5435 87.9287 37.4617V37.5884H78.2244Z" fill="black"/>
<path d="M100.107 37.905C95.6355 37.905 91.925 35.0237 91.925 29.7995C91.925 24.8918 95.1598 21.7889 100.075 21.7889C105.181 21.7889 107.179 25.1135 107.179 27.8997V27.9947H97.2846V28.533C97.2846 32.7757 100.107 34.1055 102.676 34.1055C105.625 34.1055 106.767 32.3008 107.084 31.6042L107.243 31.6675C106.83 33.7889 105.467 37.905 100.107 37.905ZM97.2846 27.6781H101.946C101.915 24.8285 101.439 22.1689 99.568 22.1689C98.1091 22.1689 97.3797 24.1636 97.2846 27.6781Z" fill="black"/>
<path d="M114.135 37.905C111.725 37.905 109.695 36.5435 109.695 33.4406V22.7704H108.268V22.7071C110.393 21.6306 113.786 19.4776 115.404 17.4195H115.531V22.2322H119.083V22.6438H115.531L115.499 32.4908C115.499 34.6755 116.482 35.2137 117.592 35.2137C118.131 35.2137 118.797 34.9921 119.526 34.2322L119.653 34.3272C118.861 35.8786 117.085 37.905 114.135 37.905Z" fill="black"/>
<path d="M133.614 37.905C130.887 37.905 130.252 35.9736 130.316 34.4538H130.252C129.459 35.657 127.525 37.8734 124.607 37.8734C122.134 37.8734 120.421 36.2902 120.421 34.1055C120.421 30.591 124.766 28.723 130.316 27.3615L130.347 24.6069C130.347 23.4987 129.999 22.2322 128.825 22.2322C126.922 22.2322 126.003 25.5567 125.686 28.153L121.626 25.9683C122.483 24.1953 124.861 21.8206 129.65 21.8206C135.517 21.8206 135.992 25.4617 135.929 27.8997L135.77 34.6755C135.77 35.1187 135.897 35.7203 136.595 35.7203C137.261 35.7203 137.737 35.0871 137.959 34.6121L138.117 34.6438C137.61 36.1636 136.246 37.905 133.614 37.905ZM128.096 35.1821C129.015 35.1821 129.745 34.5488 130.189 33.9156L130.316 27.7098C127.588 28.4697 126.478 29.8945 126.478 32.4274C126.478 34.4538 127.176 35.1821 128.096 35.1821Z" fill="black"/>
<path d="M145.631 38C143.633 38 141.16 37.4301 139.733 37.0185L139.13 31.4776L139.257 31.4459C140.969 34.3588 143.538 37.6834 145.568 37.6834C146.424 37.6834 147.28 37.1135 147.28 35.8153C147.28 34.2639 146.075 33.504 143.602 32.0792C141.635 30.971 139.003 29.4512 139.003 26.4433C139.003 23.4354 141.54 21.8206 144.743 21.8206C146.424 21.8206 148.707 22.2955 150.071 22.6438L150.578 27.8364L150.452 27.8681C148.929 25.3984 146.456 22.1689 144.648 22.1689C143.855 22.1689 142.999 22.7071 142.999 23.8786C142.999 25.7784 145.124 26.6016 146.963 27.5515C149.31 28.7546 151.562 30.2427 151.562 33.1557C151.562 35.9736 149.437 38 145.631 38Z" fill="black"/>
<path d="M158.391 37.905C155.981 37.905 153.951 36.5435 153.951 33.4406V22.7704H152.524V22.7071C154.649 21.6306 158.042 19.4776 159.66 17.4195H159.787V22.2322H163.339V22.6438H159.787L159.755 32.4908C159.755 34.6755 160.738 35.2137 161.848 35.2137C162.387 35.2137 163.053 34.9921 163.783 34.2322L163.909 34.3272C163.117 35.8786 161.341 37.905 158.391 37.905Z" fill="black"/>
<path d="M171.865 37.905C167.393 37.905 163.682 35.0237 163.682 29.7995C163.682 24.8918 166.917 21.7889 171.833 21.7889C176.939 21.7889 178.937 25.1135 178.937 27.8997V27.9947H169.042V28.533C169.042 32.7757 171.865 34.1055 174.433 34.1055C177.383 34.1055 178.524 32.3008 178.841 31.6042L179 31.6675C178.588 33.7889 177.224 37.905 171.865 37.905ZM169.042 27.6781H173.704C173.672 24.8285 173.196 22.1689 171.325 22.1689C169.867 22.1689 169.137 24.1636 169.042 27.6781Z" fill="black"/>
</svg>
