<svg version="1.2" xmlns="http://www.w3.org/2000/svg" viewBox="0 0 178 109" width="178" height="109">
	<title>0_2</title>
	<style>
		.s0 { fill: #413c3c } 
	</style>
	<path id="Path 0" class="s0" d="m8 22.8c0 3.7 0.9 10.3 2 14.7 1.2 4.4 3.4 10.7 5 14 1.6 3.3 5.1 8.9 7.8 12.5 2.7 3.6 7.3 8.7 10.3 11.3 3 2.7 8.8 6.9 12.9 9.3 4.1 2.4 11 5.6 15.3 6.9 4.2 1.4 11.9 3 16.9 3.6 7.1 0.9 11.6 0.9 18.8 0 5.2-0.7 13.5-2.6 18.5-4.2 5-1.7 11.9-4.7 15.5-6.8 3.6-2.1 9.4-6.5 12.9-9.7 3.5-3.3 8.3-8.6 10.7-11.9 2.3-3.3 5.6-8.9 7.3-12.5 1.7-3.6 3.7-9.2 4.6-12.5 0.8-3.3 1.8-9.5 2.3-13.8 0.6-6.5 0.5-7.7-0.8-7.7-0.8 0-4.9 1.1-9 2.5-4.1 1.4-14 3.9-22 5.5-8 1.6-21.5 3.4-30 4.1-8.9 0.6-21.3 0.8-29 0.5-7.4-0.4-18.4-1.4-24.5-2.1-6.1-0.8-15.5-2.6-21-3.9-5.5-1.4-12.7-3.4-16-4.6-3.3-1.1-6.6-2-7.3-2-0.8 0-1.2 2-1.2 6.7z"/>
</svg>