<svg width="156" height="24" viewBox="0 0 156 24" fill="none" xmlns="http://www.w3.org/2000/svg">
<path d="M8.02345 24C5.35954 24 2.28335 23.0185 0.443986 22.2586L0 14.9129H0.126853C1.93451 18.8707 5.04241 23.6201 8.18202 23.6201C9.83111 23.6201 11.1631 22.3536 11.1631 20.1689C11.1631 18.2691 10.18 16.876 6.24751 14.5646C3.71045 13.0765 0.221993 11.3034 0.221993 7.02902C0.221993 2.8496 3.61531 0.538259 7.73804 0.538259C9.7994 0.538259 12.3999 1.13984 14.0807 1.64644L14.7467 8.83377H14.6198C12.9073 5.19261 10.1482 0.918207 7.35748 0.918207C5.93038 0.918207 4.69356 2.02639 4.69356 3.98945C4.69356 5.73087 5.67667 6.77573 9.41884 8.99208C13.0341 11.1135 15.9201 12.5066 15.9201 16.876C15.9201 22.2269 11.6071 24 8.02345 24Z" fill="#FF8472"/>
<path d="M16.8836 23.5884V23.4617C18.2155 22.5435 18.501 22.1953 18.501 19.8839V5.88918C18.501 2.81794 18.1204 2.62797 16.9153 1.48813V1.36148C19.3889 1.17151 21.926 0.759896 24.3996 0V11.0185C25.8584 8.96042 27.7612 7.82058 29.9495 7.82058C31.4717 7.82058 34.7064 8.48549 34.7064 12.7599V19.8839C34.7064 22.1953 35.0236 22.5435 36.3238 23.4617V23.5884H27.2221V23.4617C28.5224 22.5435 28.8395 22.1953 28.8395 19.8839C28.8712 14.1214 28.8712 13.8997 28.8712 13.8364C28.8712 10.8918 28.0467 10.0686 26.8098 10.0686C25.9853 10.0686 25.1925 10.4485 24.3996 11.6517V19.8839C24.3996 22.1953 24.7168 22.5435 26.017 23.4617V23.5884H16.8836Z" fill="#FF8472"/>
<path d="M50.5011 23.905C47.7738 23.905 47.1395 21.9736 47.203 20.4538H47.1395C46.3467 21.657 44.4122 23.8734 41.4946 23.8734C39.0209 23.8734 37.3084 22.2902 37.3084 20.1055C37.3084 16.591 41.6531 14.723 47.203 13.3615L47.2347 10.6069C47.2347 9.49868 46.8858 8.23219 45.7124 8.23219C43.8096 8.23219 42.89 11.5567 42.5728 14.153L38.5135 11.9683C39.3698 10.1953 41.7483 7.82058 46.537 7.82058C52.4039 7.82058 52.8796 11.4617 52.8162 13.8997L52.6576 20.6755C52.6576 21.1187 52.7845 21.7203 53.4822 21.7203C54.1482 21.7203 54.6239 21.0871 54.8459 20.6121L55.0044 20.6438C54.497 22.1636 53.1333 23.905 50.5011 23.905ZM44.983 21.1821C45.9027 21.1821 46.6321 20.5488 47.0761 19.9156L47.203 13.7098C44.4756 14.4697 43.3657 15.8945 43.3657 18.4274C43.3657 20.4538 44.0633 21.1821 44.983 21.1821Z" fill="#FF8472"/>
<path d="M55.2244 23.5884V23.4617C56.5564 22.5435 56.8418 22.1953 56.8418 19.8839V13.1715C56.8418 10.7968 56.5247 10.2586 55.2561 9.18206V9.05541C57.6981 8.92876 60.2034 8.48549 62.6453 7.75726V10.8602C63.0893 9.56201 64.453 7.82058 67.1486 7.82058C67.7512 7.82058 68.1 7.91557 68.5123 8.10554L67.7195 14.0897H67.5926C66.5778 12.5383 64.9287 10.5119 63.8821 10.5119C63.3113 10.5119 62.9308 10.9235 62.7405 11.3034V19.8839C62.7405 22.1953 63.1527 22.5435 64.9287 23.4617V23.5884H55.2244Z" fill="#FF8472"/>
<path d="M77.1071 23.905C72.6355 23.905 68.925 21.0237 68.925 15.7995C68.925 10.8918 72.1598 7.78892 77.0754 7.78892C82.1812 7.78892 84.1791 11.1135 84.1791 13.8997V13.9947H74.2846V14.533C74.2846 18.7757 77.1071 20.1055 79.6758 20.1055C82.6252 20.1055 83.7669 18.3008 84.084 17.6042L84.2426 17.6675C83.8303 19.7889 82.4666 23.905 77.1071 23.905ZM74.2846 13.6781H78.9464C78.9147 10.8285 78.439 8.16887 76.568 8.16887C75.1091 8.16887 74.3797 10.1636 74.2846 13.6781Z" fill="#FF8472"/>
<path d="M91.1352 23.905C88.725 23.905 86.6954 22.5435 86.6954 19.4406V8.77045H85.2683V8.70712C87.3931 7.63061 90.7864 5.47757 92.4038 3.41953H92.5306V8.23219H96.0825V8.6438H92.5306L92.4989 18.4908C92.4989 20.6755 93.482 21.2137 94.592 21.2137C95.1311 21.2137 95.7971 20.9921 96.5265 20.2322L96.6533 20.3272C95.8605 21.8786 94.0846 23.905 91.1352 23.905Z" fill="#FF8472"/>
<path d="M110.614 23.905C107.887 23.905 107.252 21.9736 107.316 20.4538H107.252C106.459 21.657 104.525 23.8734 101.607 23.8734C99.1337 23.8734 97.4212 22.2902 97.4212 20.1055C97.4212 16.591 101.766 14.723 107.316 13.3615L107.347 10.6069C107.347 9.49868 106.999 8.23219 105.825 8.23219C103.922 8.23219 103.003 11.5567 102.686 14.153L98.6263 11.9683C99.4825 10.1953 101.861 7.82058 106.65 7.82058C112.517 7.82058 112.992 11.4617 112.929 13.8997L112.77 20.6755C112.77 21.1187 112.897 21.7203 113.595 21.7203C114.261 21.7203 114.737 21.0871 114.959 20.6121L115.117 20.6438C114.61 22.1636 113.246 23.905 110.614 23.905ZM105.096 21.1821C106.015 21.1821 106.745 20.5488 107.189 19.9156L107.316 13.7098C104.588 14.4697 103.478 15.8945 103.478 18.4274C103.478 20.4538 104.176 21.1821 105.096 21.1821Z" fill="#FF8472"/>
<path d="M122.631 24C120.633 24 118.16 23.4301 116.733 23.0185L116.13 17.4776L116.257 17.4459C117.969 20.3588 120.538 23.6834 122.568 23.6834C123.424 23.6834 124.28 23.1135 124.28 21.8153C124.28 20.2639 123.075 19.504 120.602 18.0792C118.635 16.971 116.003 15.4512 116.003 12.4433C116.003 9.43536 118.54 7.82058 121.743 7.82058C123.424 7.82058 125.707 8.29552 127.071 8.6438L127.578 13.8364L127.452 13.8681C125.929 11.3984 123.456 8.16887 121.648 8.16887C120.855 8.16887 119.999 8.70712 119.999 9.87863C119.999 11.7784 122.124 12.6016 123.963 13.5515C126.31 14.7546 128.562 16.2427 128.562 19.1557C128.562 21.9736 126.437 24 122.631 24Z" fill="#FF8472"/>
<path d="M135.391 23.905C132.981 23.905 130.951 22.5435 130.951 19.4406V8.77045H129.524V8.70712C131.649 7.63061 135.042 5.47757 136.66 3.41953H136.787V8.23219H140.339V8.6438H136.787L136.755 18.4908C136.755 20.6755 137.738 21.2137 138.848 21.2137C139.387 21.2137 140.053 20.9921 140.783 20.2322L140.909 20.3272C140.117 21.8786 138.341 23.905 135.391 23.905Z" fill="#FF8472"/>
<path d="M148.865 23.905C144.393 23.905 140.682 21.0237 140.682 15.7995C140.682 10.8918 143.917 7.78892 148.833 7.78892C153.939 7.78892 155.937 11.1135 155.937 13.8997V13.9947H146.042V14.533C146.042 18.7757 148.865 20.1055 151.433 20.1055C154.383 20.1055 155.524 18.3008 155.841 17.6042L156 17.6675C155.588 19.7889 154.224 23.905 148.865 23.905ZM146.042 13.6781H150.704C150.672 10.8285 150.196 8.16887 148.325 8.16887C146.867 8.16887 146.137 10.1636 146.042 13.6781Z" fill="#FF8472"/>
</svg>
